# xmcd
# Copyright (C) 1995-1998 Ti Kan
#
# Track frame offsets:
#       183
#       34385
#       53291
#       80493
#       109545
#       145509
#       195051
#       237996
#
# Disc length: 3793 seconds
#
# Revision: 0
# Processed by: cddbd v1.5.1PL0 Copyright (c) Steve Scherf et al.
# Submitted via: CD-Transfer v1.0
#
DISCID=550ecf08
DTITLE=Edouard Lalo - Antonin Dvorak - 
DYEAR=1994
DGENRE=
TTITLE0=Symphonie Espagnole - Allegro non troppo
TTITLE1=Symphonie Espagnole - Scherzando
TTITLE2=Symphonie Espagnole - Intermezzo
TTITLE3=Symphonie Espagnole - Andante
TTITLE4=Symphonie Espagnole - Rondo: Allegro
TTITLE5=Dvorak Violinkonzert: Allegro ma non troppo
TTITLE6=Dvorak Violinkonzert: Adagio ma non troppo
TTITLE7=Dvorak Violinkonzert: Finale: Allegro giocoso
EXTD=
EXTT0=
EXTT1=
EXTT2=
EXTT3=
EXTT4=
EXTT5=
EXTT6=
EXTT7=
PLAYORDER=
